<?xml version="1.0" encoding="UTF-8"?>
<svg version="1.1" xmlns="http://www.w3.org/2000/svg" width="512" height="512">
<path d="M0 0 C4.39995616 2.67732377 8.05318996 5.76969163 11.65682983 9.4163208 C12.19281819 9.95060031 12.72880655 10.48487981 13.28103697 11.03534961 C15.06371917 12.81475527 16.83918997 14.60118112 18.61474609 16.38769531 C19.89597322 17.66948694 21.17764162 18.95083762 22.4597168 20.23178101 C25.93068512 23.70217637 29.3954597 27.17869612 32.85914564 30.65635777 C36.48304792 34.29277685 40.11262852 37.92351926 43.74160767 41.55487061 C50.60904048 48.42851538 57.47135982 55.30724174 64.3318516 62.18781352 C72.14409088 70.02242059 79.96202139 77.85133796 87.78043246 85.67978525 C103.85995722 101.78020559 119.93233037 117.88774924 136 134 C139.90478851 132.41359802 142.52704843 129.74214098 145.43409729 126.79295349 C145.97034365 126.25700485 146.50659001 125.72105621 147.05908626 125.16886669 C148.85480468 123.37175928 150.64327316 121.56760642 152.43188477 119.76342773 C153.71778653 118.47368776 155.00414431 117.18440231 156.29092407 115.89553833 C159.06078735 113.11935175 161.82751238 110.34008777 164.59189034 107.55843925 C168.96041383 103.16290001 173.33652959 98.77497337 177.71385193 94.38819885 C187.00265157 85.07718912 196.28299179 75.75776836 205.5625 66.4375 C215.58316729 56.37282893 225.60524612 46.30958917 235.63709873 36.25606495 C239.99114752 31.89203095 244.34026815 27.52316106 248.68572819 23.15057552 C251.38578603 20.43563541 254.08994819 17.72481247 256.79526138 15.01511002 C258.05195748 13.75465893 259.30691805 12.49247482 260.56003761 11.22846794 C262.26642965 9.50771529 263.97882439 7.79317042 265.69288635 6.08006287 C266.19113358 5.57462572 266.6893808 5.06918857 267.20272642 4.54843515 C270.72446391 1.0477493 272.79976277 0.0983801 277.8125 -0.3125 C282.19620197 -0.24803379 284.64568303 1.11372726 288 4 C290.87866263 7.45439516 291.3583028 10.36623085 291.49609375 14.83984375 C290.20269721 20.47172004 285.57554553 24.71202272 281.5836792 28.65682983 C281.04939969 29.19281819 280.51512019 29.72880655 279.96465039 30.28103697 C278.18524473 32.06371917 276.39881888 33.83918997 274.61230469 35.61474609 C273.33051306 36.89597322 272.04916238 38.17764162 270.76821899 39.4597168 C267.29782363 42.93068512 263.82130388 46.3954597 260.34364223 49.85914564 C256.70722315 53.48304792 253.07648074 57.11262852 249.44512939 60.74160767 C242.57148462 67.60904048 235.69275826 74.47135982 228.81218648 81.3318516 C220.97757941 89.14409088 213.14866204 96.96202139 205.32021475 104.78043246 C189.21979441 120.85995722 173.11225076 136.93233037 157 153 C158.58640198 156.90478851 161.25785902 159.52704843 164.20704651 162.43409729 C164.74299515 162.97034365 165.27894379 163.50659001 165.83113331 164.05908626 C167.62824072 165.85480468 169.43239358 167.64327316 171.23657227 169.43188477 C172.52631224 170.71778653 173.81559769 172.00414431 175.10446167 173.29092407 C177.88064825 176.06078735 180.65991223 178.82751238 183.44156075 181.59189034 C187.83709999 185.96041383 192.22502663 190.33652959 196.61180115 194.71385193 C205.92281088 204.00265157 215.24223164 213.28299179 224.5625 222.5625 C234.62717107 232.58316729 244.69041083 242.60524612 254.74393505 252.63709873 C259.10796905 256.99114752 263.47683894 261.34026815 267.84942448 265.68572819 C270.56436459 268.38578603 273.27518753 271.08994819 275.98488998 273.79526138 C277.24534107 275.05195748 278.50752518 276.30691805 279.77153206 277.56003761 C281.49228471 279.26642965 283.20682958 280.97882439 284.91993713 282.69288635 C285.42537428 283.19113358 285.93081143 283.6893808 286.45156485 284.20272642 C289.9522507 287.72446391 290.9016199 289.79976277 291.3125 294.8125 C291.24803379 299.19620197 289.88627274 301.64568303 287 305 C283.54560484 307.87866263 280.63376915 308.3583028 276.16015625 308.49609375 C270.52827996 307.20269721 266.28797728 302.57554553 262.34317017 298.5836792 C261.80718181 298.04939969 261.27119345 297.51512019 260.71896303 296.96465039 C258.93628083 295.18524473 257.16081003 293.39881888 255.38525391 291.61230469 C254.10402678 290.33051306 252.82235838 289.04916238 251.5402832 287.76821899 C248.06931488 284.29782363 244.6045403 280.82130388 241.14085436 277.34364223 C237.51695208 273.70722315 233.88737148 270.07648074 230.25839233 266.44512939 C223.39095952 259.57148462 216.52864018 252.69275826 209.6681484 245.81218648 C201.85590912 237.97757941 194.03797861 230.14866204 186.21956754 222.32021475 C170.14004278 206.21979441 154.06766963 190.11225076 138 174 C134.09521149 175.58640198 131.47295157 178.25785902 128.56590271 181.20704651 C128.02965635 181.74299515 127.49340999 182.27894379 126.94091374 182.83113331 C125.14519532 184.62824072 123.35672684 186.43239358 121.56811523 188.23657227 C120.28221347 189.52631224 118.99585569 190.81559769 117.70907593 192.10446167 C114.93921265 194.88064825 112.17248762 197.65991223 109.40810966 200.44156075 C105.03958617 204.83709999 100.66347041 209.22502663 96.28614807 213.61180115 C86.99734843 222.92281088 77.71700821 232.24223164 68.4375 241.5625 C58.41683271 251.62717107 48.39475388 261.69041083 38.36290127 271.74393505 C34.00885248 276.10796905 29.65973185 280.47683894 25.31427181 284.84942448 C22.61421397 287.56436459 19.91005181 290.27518753 17.20473862 292.98488998 C15.94804252 294.24534107 14.69308195 295.50752518 13.43996239 296.77153206 C11.73357035 298.49228471 10.02117561 300.20682958 8.30711365 301.91993713 C7.55974281 302.67809285 7.55974281 302.67809285 6.79727358 303.45156485 C3.27553609 306.9522507 1.20023723 307.9016199 -3.8125 308.3125 C-8.19620197 308.24803379 -10.64568303 306.88627274 -14 304 C-16.87866263 300.54560484 -17.3583028 297.63376915 -17.49609375 293.16015625 C-16.20269721 287.52827996 -11.57554553 283.28797728 -7.5836792 279.34317017 C-7.04939969 278.80718181 -6.51512019 278.27119345 -5.96465039 277.71896303 C-4.18524473 275.93628083 -2.39881888 274.16081003 -0.61230469 272.38525391 C0.66948694 271.10402678 1.95083762 269.82235838 3.23178101 268.5402832 C6.70217637 265.06931488 10.17869612 261.6045403 13.65635777 258.14085436 C17.29277685 254.51695208 20.92351926 250.88737148 24.55487061 247.25839233 C31.42851538 240.39095952 38.30724174 233.52864018 45.18781352 226.6681484 C53.02242059 218.85590912 60.85133796 211.03797861 68.67978525 203.21956754 C84.78020559 187.14004278 100.88774924 171.06766963 117 155 C115.41359802 151.09521149 112.74214098 148.47295157 109.79295349 145.56590271 C109.25700485 145.02965635 108.72105621 144.49340999 108.16886669 143.94091374 C106.37175928 142.14519532 104.56760642 140.35672684 102.76342773 138.56811523 C101.47368776 137.28221347 100.18440231 135.99585569 98.89553833 134.70907593 C96.11935175 131.93921265 93.34008777 129.17248762 90.55843925 126.40810966 C86.16290001 122.03958617 81.77497337 117.66347041 77.38819885 113.28614807 C68.07718912 103.99734843 58.75776836 94.71700821 49.4375 85.4375 C39.37282893 75.41683271 29.30958917 65.39475388 19.25606495 55.36290127 C14.89203095 51.00885248 10.52316106 46.65973185 6.15057552 42.31427181 C3.43563541 39.61421397 0.72481247 36.91005181 -1.98488998 34.20473862 C-3.24534107 32.94804252 -4.50752518 31.69308195 -5.77153206 30.43996239 C-7.49228471 28.73357035 -9.20682958 27.02117561 -10.91993713 25.30711365 C-11.42537428 24.80886642 -11.93081143 24.3106192 -12.45156485 23.79727358 C-15.9522507 20.27553609 -16.9016199 18.20023723 -17.3125 13.1875 C-17.24803379 8.80379803 -15.88627274 6.35431697 -13 3 C-9.16100435 -0.19916304 -4.87033388 -1.11850344 0 0 Z " fill="#414141" transform="translate(119,102)"/>
</svg>
