<?xml version="1.0" encoding="UTF-8"?>
<svg version="1.1" xmlns="http://www.w3.org/2000/svg" width="512" height="512">
<path d="M0 0 C0.60956543 0.29003906 1.21913086 0.58007812 1.84716797 0.87890625 C13.54481151 6.92607258 22.83619184 17.16588602 32.03417969 26.38452148 C33.33437086 27.68035534 34.634976 28.97577397 35.93595886 30.27081299 C39.43834456 33.75991166 42.93440632 37.25527988 46.42888165 40.75229907 C49.35700571 43.68149921 52.28811523 46.60770316 55.21916413 49.53397614 C62.13624265 56.43999654 69.04802572 63.3512852 75.95654297 70.26586914 C83.06483675 77.38020917 90.18227557 84.48530539 97.30422091 91.58597702 C103.43987176 97.70397865 109.5696639 103.82780762 115.69487119 109.95626503 C119.34408867 113.60728914 122.99545842 117.2560904 126.65254974 120.89922905 C130.09030259 124.32435291 133.5206428 127.75673576 136.94558144 131.19467163 C138.19783139 132.44927533 139.45260326 133.7013681 140.71017265 134.95063972 C158.46680893 152.59860114 169.88726702 171.83322847 170.1875 197.375 C170.1063356 206.46541309 168.4773094 214.691214 165.6875 223.3125 C165.39875 224.23289062 165.11 225.15328125 164.8125 226.1015625 C158.50194556 243.84999687 143.07796611 257.06913258 130.09448242 270.08251953 C128.8740353 271.3092525 127.65376999 272.53616636 126.43367004 273.76324463 C122.47359769 277.7440889 118.50843829 281.71984578 114.54296875 285.6953125 C113.16663443 287.07570294 111.79033066 288.45612386 110.41405678 289.83657455 C103.94959059 296.32002471 97.4827607 302.80110566 91.01298541 309.27925789 C83.58696555 316.71505754 76.16931406 324.15907692 68.75860709 331.6101371 C62.99799977 337.40101734 57.22962978 343.1840925 51.45551759 348.96150672 C48.02079842 352.39856127 44.58937346 355.83874998 41.16618919 359.2872963 C37.94507834 362.53189344 34.71432895 365.7665888 31.47636223 368.99436188 C30.29994509 370.1702887 29.12685034 371.34955185 27.95763779 372.53264236 C10.19417642 390.49484498 -9.06650368 402.39819296 -35.125 402.75 C-65.16695462 402.51720466 -84.43044516 386.51573725 -104.70263672 366.19702148 C-105.98342031 364.92059838 -107.26461677 363.64458944 -108.54618835 362.36895752 C-111.98645576 358.94194009 -115.42043796 355.50869296 -118.85281134 352.07377124 C-121.73132817 349.19417623 -124.61283502 346.31758208 -127.49427521 343.44091278 C-134.29343875 336.65279349 -141.0873241 329.85942368 -147.87792969 323.06274414 C-154.86243085 316.07219163 -161.85608939 309.09089688 -168.85423648 302.11400741 C-174.88801766 296.09787534 -180.91594009 290.0759164 -186.93927777 284.04932839 C-190.52586778 280.46093247 -194.11460527 276.87475584 -197.70907211 273.29424858 C-201.08611486 269.9298355 -204.4557426 266.55816383 -207.81997108 263.18093872 C-209.0496472 261.94890939 -210.28184384 260.71938938 -211.51683998 259.49269295 C-229.15118632 241.9682726 -240.55326958 222.72579456 -240.8125 197.3125 C-240.67142669 184.5371636 -238.15611967 173.52042237 -232.625 162 C-232.33496094 161.39043457 -232.04492188 160.78086914 -231.74609375 160.15283203 C-225.70853005 148.47376382 -215.4869434 139.18781345 -206.28808594 129.99755859 C-204.99712871 128.7006029 -203.70657741 127.40324307 -202.41639709 126.10551453 C-198.93958396 122.61117306 -195.45644192 119.12320971 -191.97149563 115.63698149 C-189.78807626 113.452133 -187.60609033 111.26586329 -185.42459869 109.07909012 C-177.79608091 101.43211901 -170.16246522 93.79028054 -162.52392578 86.15332031 C-155.4319266 79.06252279 -148.35116399 71.9606408 -141.27556968 64.85347688 C-135.1745617 58.7262309 -129.0657789 52.60680921 -122.95100045 46.4933058 C-119.31031374 42.8531263 -115.67272332 39.20998605 -112.04296112 35.55891037 C-108.62740997 32.12384835 -105.20218934 28.69871901 -101.76965141 25.28063393 C-100.52026788 24.03332338 -99.27420941 22.78267072 -98.0319767 21.5282383 C-71.23374403 -5.51580793 -35.8516068 -17.21286957 0 0 Z M-110.6875 127.0625 C-111.64093894 130.49488017 -112.04304097 133.83314385 -111.3125 137.3125 C-108.64325866 141.70349949 -105.62854303 145.24081908 -101.99316406 148.85888672 C-101.47564072 149.37670212 -100.95811737 149.89451752 -100.4249115 150.42802429 C-98.73068477 152.12086914 -97.0295085 153.80653834 -95.328125 155.4921875 C-94.1451316 156.6714467 -92.962582 157.85115126 -91.78045654 159.03128052 C-88.68106645 162.12306618 -85.57571566 165.20879602 -82.46905518 168.29327393 C-79.29473555 171.44706621 -76.12613129 174.60658936 -72.95703125 177.765625 C-66.74774501 183.95351764 -60.53214551 190.13501996 -54.3125 196.3125 C-55.90348704 200.20205286 -58.40646526 202.63514908 -61.37304688 205.56835938 C-61.88706558 206.07945755 -62.40108429 206.59055573 -62.93067932 207.11714172 C-64.0443091 208.22317681 -65.16024297 209.32689578 -66.2782135 210.42854309 C-68.04793356 212.1726925 -69.81129198 213.92305221 -71.57312012 215.6751709 C-75.94933124 220.02466583 -80.33633094 224.36322776 -84.72296143 228.70220947 C-88.43150409 232.37129323 -92.1359312 236.04443923 -95.8349762 239.72309875 C-97.57144794 241.44661434 -99.31383896 243.16399043 -101.05651855 244.88122559 C-102.12195888 245.93939985 -103.18711886 246.99785649 -104.25195312 248.05664062 C-105.64855164 249.43752869 -105.64855164 249.43752869 -107.07336426 250.84631348 C-110.7335315 254.87762562 -111.77753322 257.74051377 -111.6328125 263.28125 C-110.99029482 267.35575238 -108.74107538 270.19004791 -105.5625 272.6875 C-102.13011983 273.64093894 -98.79185615 274.04304097 -95.3125 273.3125 C-90.92150051 270.64325866 -87.38418092 267.62854303 -83.76611328 263.99316406 C-83.24829788 263.47564072 -82.73048248 262.95811737 -82.19697571 262.4249115 C-80.50413086 260.73068477 -78.81846166 259.0295085 -77.1328125 257.328125 C-75.9535533 256.1451316 -74.77384874 254.962582 -73.59371948 253.78045654 C-70.50193382 250.68106645 -67.41620398 247.57571566 -64.33172607 244.46905518 C-61.17793379 241.29473555 -58.01841064 238.12613129 -54.859375 234.95703125 C-48.67148236 228.74774501 -42.48998004 222.53214551 -36.3125 216.3125 C-32.42294714 217.90348704 -29.98985092 220.40646526 -27.05664062 223.37304688 C-26.54554245 223.88706558 -26.03444427 224.40108429 -25.50785828 224.93067932 C-24.40182319 226.0443091 -23.29810422 227.16024297 -22.19645691 228.2782135 C-20.4523075 230.04793356 -18.70194779 231.81129198 -16.9498291 233.57312012 C-12.60033417 237.94933124 -8.26177224 242.33633094 -3.92279053 246.72296143 C-0.25370677 250.43150409 3.41943923 254.1359312 7.09809875 257.8349762 C8.82161434 259.57144794 10.53899043 261.31383896 12.25622559 263.05651855 C13.31439985 264.12195888 14.37285649 265.18711886 15.43164062 266.25195312 C16.81252869 267.64855164 16.81252869 267.64855164 18.22131348 269.07336426 C22.25262562 272.7335315 25.11551377 273.77753322 30.65625 273.6328125 C34.73075238 272.99029482 37.56504791 270.74107538 40.0625 267.5625 C41.01593894 264.13011983 41.41804097 260.79185615 40.6875 257.3125 C38.01825866 252.92150051 35.00354303 249.38418092 31.36816406 245.76611328 C30.85064072 245.24829788 30.33311737 244.73048248 29.7999115 244.19697571 C28.10568477 242.50413086 26.4045085 240.81846166 24.703125 239.1328125 C23.5201316 237.9535533 22.337582 236.77384874 21.15545654 235.59371948 C18.05606645 232.50193382 14.95071566 229.41620398 11.84405518 226.33172607 C8.66973555 223.17793379 5.50113129 220.01841064 2.33203125 216.859375 C-3.87725499 210.67148236 -10.09285449 204.48998004 -16.3125 198.3125 C-14.72151296 194.42294714 -12.21853474 191.98985092 -9.25195312 189.05664062 C-8.73793442 188.54554245 -8.22391571 188.03444427 -7.69432068 187.50785828 C-6.5806909 186.40182319 -5.46475703 185.29810422 -4.3467865 184.19645691 C-2.57706644 182.4523075 -0.81370802 180.70194779 0.94812012 178.9498291 C5.32433124 174.60033417 9.71133094 170.26177224 14.09796143 165.92279053 C17.80650409 162.25370677 21.5109312 158.58056077 25.2099762 154.90190125 C26.94644794 153.17838566 28.68883896 151.46100957 30.43151855 149.74377441 C31.49695888 148.68560015 32.56211886 147.62714351 33.62695312 146.56835938 C34.5580188 145.64776733 35.48908447 144.72717529 36.44836426 143.77868652 C40.1085315 139.74737438 41.15253322 136.88448623 41.0078125 131.34375 C40.36529482 127.26924762 38.11607538 124.43495209 34.9375 121.9375 C31.50511983 120.98406106 28.16685615 120.58195903 24.6875 121.3125 C20.29650051 123.98174134 16.75918092 126.99645697 13.14111328 130.63183594 C12.62329788 131.14935928 12.10548248 131.66688263 11.57197571 132.2000885 C9.87913086 133.89431523 8.19346166 135.5954915 6.5078125 137.296875 C5.3285533 138.4798684 4.14884874 139.662418 2.96871948 140.84454346 C-0.12306618 143.94393355 -3.20879602 147.04928434 -6.29327393 150.15594482 C-9.44706621 153.33026445 -12.60658936 156.49886871 -15.765625 159.66796875 C-21.95351764 165.87725499 -28.13501996 172.09285449 -34.3125 178.3125 C-38.20205286 176.72151296 -40.63514908 174.21853474 -43.56835938 171.25195312 C-44.07945755 170.73793442 -44.59055573 170.22391571 -45.11714172 169.69432068 C-46.22317681 168.5806909 -47.32689578 167.46475703 -48.42854309 166.3467865 C-50.1726925 164.57706644 -51.92305221 162.81370802 -53.6751709 161.05187988 C-58.02466583 156.67566876 -62.36322776 152.28866906 -66.70220947 147.90203857 C-70.37129323 144.19349591 -74.04443923 140.4890688 -77.72309875 136.7900238 C-79.44661434 135.05355206 -81.16399043 133.31116104 -82.88122559 131.56848145 C-83.93939985 130.50304112 -84.99785649 129.43788114 -86.05664062 128.37304688 C-86.97723267 127.4419812 -87.89782471 126.51091553 -88.84631348 125.55163574 C-92.87762562 121.8914685 -95.74051377 120.84746678 -101.28125 120.9921875 C-105.35575238 121.63470518 -108.19004791 123.88392462 -110.6875 127.0625 Z " fill="#B00D1B" transform="translate(291.3125,58.6875)"/>
</svg>
