<?xml version="1.0" encoding="UTF-8"?>
<svg version="1.1" xmlns="http://www.w3.org/2000/svg" width="512" height="512">
<path d="M0 0 C0.80301544 -0.00067474 1.60603088 -0.00134949 2.43338013 -0.00204468 C15.10249299 0.01484305 27.31578833 0.648435 39.75 3.25 C41.03269775 3.50740967 41.03269775 3.50740967 42.34130859 3.77001953 C96.72167922 14.89666695 143.42557008 47.90422993 173.90625 93.99853516 C190.55096264 119.73860076 200.08539789 148.07332145 204.75 178.25 C204.8619873 178.95753418 204.97397461 179.66506836 205.08935547 180.39404297 C206.1640854 188.36543557 205.99394032 196.4707191 206 204.5 C206.00067474 205.30301544 206.00134949 206.10603088 206.00204468 206.93338013 C205.98515695 219.60249299 205.351565 231.81578833 202.75 244.25 C202.57839355 245.10513184 202.40678711 245.96026367 202.22998047 246.84130859 C191.10333305 301.22167922 158.09577007 347.92557008 112.00146484 378.40625 C86.26139924 395.05096264 57.92667855 404.58539789 27.75 409.25 C27.04246582 409.3619873 26.33493164 409.47397461 25.60595703 409.58935547 C17.63456443 410.6640854 9.5292809 410.49394032 1.5 410.5 C0.69698456 410.50067474 -0.10603088 410.50134949 -0.93338013 410.50204468 C-13.60249299 410.48515695 -25.81578833 409.851565 -38.25 407.25 C-39.10513184 407.07839355 -39.96026367 406.90678711 -40.84130859 406.72998047 C-87.64276436 397.15403806 -130.78430023 370.95566537 -160.25 333.25 C-161.32701172 331.89841797 -161.32701172 331.89841797 -162.42578125 330.51953125 C-184.85124585 301.64126867 -197.69175135 268.20793996 -203.25 232.25 C-203.3619873 231.54246582 -203.47397461 230.83493164 -203.58935547 230.10595703 C-204.6640854 222.13456443 -204.49394032 214.0292809 -204.5 206 C-204.50067474 205.19698456 -204.50134949 204.39396912 -204.50204468 203.56661987 C-204.48515695 190.89750701 -203.851565 178.68421167 -201.25 166.25 C-201.07839355 165.39486816 -200.90678711 164.53973633 -200.72998047 163.65869141 C-189.60333305 109.27832078 -156.59577007 62.57442992 -110.50146484 32.09375 C-84.76139924 15.44903736 -56.42667855 5.91460211 -26.25 1.25 C-25.54246582 1.1380127 -24.83493164 1.02602539 -24.10595703 0.91064453 C-16.13456443 -0.1640854 -8.0292809 0.00605968 0 0 Z M-14.125 110.125 C-17.78790211 115.51162075 -18.72992397 119.64334539 -17.77734375 126.01171875 C-16.48089144 131.51443857 -14.12279616 134.94698904 -9.4375 138.125 C-4.98149132 140.6078683 -1.12276366 141.86027622 4.01171875 140.76953125 C9.43668781 139.14652398 13.81390359 137.26857843 16.97265625 132.34375 C19.98679764 126.54025064 20.42937139 121.5691731 18.75 115.25 C16.04834794 110.03967102 12.57811776 106.7787123 7.4375 104 C-0.91371975 101.66942705 -8.31137059 103.64646869 -14.125 110.125 Z M-9.35536194 172.12524414 C-12.2805493 176.94964651 -11.79894028 181.58278112 -11.75170898 187.12109375 C-11.75711197 188.32323517 -11.76251495 189.52537659 -11.76808167 190.76394653 C-11.77843458 194.05337015 -11.77087948 197.34213863 -11.75437045 200.63151932 C-11.74049671 204.07783649 -11.74698267 207.52412395 -11.75050354 210.97045898 C-11.75320384 216.7574099 -11.73974575 222.54415318 -11.71655273 228.33105469 C-11.68994396 235.0163938 -11.68819647 241.70138583 -11.6999411 248.38675976 C-11.71072977 254.82446408 -11.70452331 261.26204316 -11.69038582 267.69973755 C-11.68463542 270.43648244 -11.68470121 273.17313539 -11.68945122 275.90988159 C-11.69235816 279.73310343 -11.67587981 283.55575626 -11.65405273 287.37890625 C-11.65855438 288.51256622 -11.66305603 289.6462262 -11.66769409 290.8142395 C-11.65778946 291.85724213 -11.64788483 292.90024475 -11.63768005 293.97485352 C-11.63525016 294.8781691 -11.63282026 295.78148468 -11.63031673 296.71217346 C-11.16316632 299.82943499 -10.07770064 301.70044174 -8.25 304.25 C-3.92777025 307.33730697 -0.46735014 307.66721191 4.62890625 306.90234375 C7.94359096 305.88291033 9.65817732 303.93014781 11.75 301.25 C12.9869262 298.7761476 12.88957728 297.11720164 12.91062927 294.34907532 C12.9206749 293.31308701 12.93072052 292.27709869 12.94107056 291.2097168 C12.94690155 290.06841309 12.95273254 288.92710937 12.95874023 287.7512207 C12.96852402 286.55272995 12.9783078 285.3542392 12.98838806 284.11943054 C13.01839484 280.13822404 13.04004483 276.1570535 13.05859375 272.17578125 C13.06189107 271.49819252 13.06518839 270.82060379 13.06858563 270.12248206 C13.09937277 263.73022231 13.12607724 257.33795783 13.14300442 250.94564533 C13.16489824 242.77378442 13.20683662 234.60258165 13.27644199 226.43098384 C13.32373553 220.68311472 13.34794521 214.93542279 13.3552013 209.18736523 C13.36015069 205.75568369 13.37516006 202.32474368 13.4149456 198.89327431 C13.45378058 195.06024466 13.45490359 191.22893105 13.44702148 187.39575195 C13.46702209 186.2645694 13.48702271 185.13338684 13.50762939 183.96792603 C13.44942548 177.66252238 12.77902213 174.00804283 8.2703104 169.4526701 C2.11648283 164.58456922 -4.21782357 167.54924296 -9.35536194 172.12524414 Z " fill="#606060" transform="translate(255.25,50.75)"/>
</svg>
