<?xml version="1.0" encoding="UTF-8"?>
<svg version="1.1" xmlns="http://www.w3.org/2000/svg" width="512" height="512">
<path d="M0 0 C0.80301544 -0.00067474 1.60603088 -0.00134949 2.43338013 -0.00204468 C15.10249299 0.01484305 27.31578833 0.648435 39.75 3.25 C41.03269775 3.50740967 41.03269775 3.50740967 42.34130859 3.77001953 C96.72167922 14.89666695 143.42557008 47.90422993 173.90625 93.99853516 C190.55096264 119.73860076 200.08539789 148.07332145 204.75 178.25 C204.8619873 178.95753418 204.97397461 179.66506836 205.08935547 180.39404297 C206.1640854 188.36543557 205.99394032 196.4707191 206 204.5 C206.00067474 205.30301544 206.00134949 206.10603088 206.00204468 206.93338013 C205.98515695 219.60249299 205.351565 231.81578833 202.75 244.25 C202.57839355 245.10513184 202.40678711 245.96026367 202.22998047 246.84130859 C191.10333305 301.22167922 158.09577007 347.92557008 112.00146484 378.40625 C86.26139924 395.05096264 57.92667855 404.58539789 27.75 409.25 C27.04246582 409.3619873 26.33493164 409.47397461 25.60595703 409.58935547 C17.63456443 410.6640854 9.5292809 410.49394032 1.5 410.5 C0.69698456 410.50067474 -0.10603088 410.50134949 -0.93338013 410.50204468 C-13.60249299 410.48515695 -25.81578833 409.851565 -38.25 407.25 C-39.10513184 407.07839355 -39.96026367 406.90678711 -40.84130859 406.72998047 C-87.64276436 397.15403806 -130.78430023 370.95566537 -160.25 333.25 C-161.32701172 331.89841797 -161.32701172 331.89841797 -162.42578125 330.51953125 C-184.85124585 301.64126867 -197.69175135 268.20793996 -203.25 232.25 C-203.3619873 231.54246582 -203.47397461 230.83493164 -203.58935547 230.10595703 C-204.6640854 222.13456443 -204.49394032 214.0292809 -204.5 206 C-204.50067474 205.19698456 -204.50134949 204.39396912 -204.50204468 203.56661987 C-204.48515695 190.89750701 -203.851565 178.68421167 -201.25 166.25 C-201.07839355 165.39486816 -200.90678711 164.53973633 -200.72998047 163.65869141 C-189.60333305 109.27832078 -156.59577007 62.57442992 -110.50146484 32.09375 C-84.76139924 15.44903736 -56.42667855 5.91460211 -26.25 1.25 C-25.54246582 1.1380127 -24.83493164 1.02602539 -24.10595703 0.91064453 C-16.13456443 -0.1640854 -8.0292809 0.00605968 0 0 Z M62.91369629 150.58862305 C62.0598938 151.45680664 61.20609131 152.32499023 60.32641602 153.21948242 C58.94962929 154.59539299 58.94962929 154.59539299 57.54502869 155.99909973 C55.04062147 158.50236384 52.54870114 161.01772808 50.05890775 163.5355165 C47.45027567 166.16922959 44.83023813 168.79154705 42.21141052 171.41511536 C37.25950413 176.37943187 32.31787885 181.35385215 27.37990278 186.33202106 C21.75537968 192.00132305 16.11943342 197.65921054 10.48251832 203.31618726 C-1.10770878 214.94817417 -12.68356983 226.59434898 -24.25 238.25 C-28.08222023 235.01460379 -31.85164451 231.77635646 -35.37768555 228.20410156 C-36.46867805 227.10331268 -36.46867805 227.10331268 -37.58171082 225.98028564 C-38.34236343 225.20819763 -39.10301605 224.43610962 -39.88671875 223.640625 C-41.53176845 221.98294133 -43.17695475 220.3253932 -44.82226562 218.66796875 C-47.39165915 216.07367275 -49.95941849 213.47779814 -52.5246582 210.87939453 C-55.01598038 208.35793635 -57.51342998 205.84267804 -60.01171875 203.328125 C-60.77844406 202.54794006 -61.54516937 201.76775513 -62.33512878 200.96392822 C-63.05300064 200.24267761 -63.7708725 199.521427 -64.51049805 198.77832031 C-65.13780319 198.14355774 -65.76510834 197.50879517 -66.41142273 196.85479736 C-70.17475066 193.56998642 -73.25142706 192.85018185 -78.2890625 193 C-82.33939304 193.5163768 -84.52573074 195.37588192 -87.0625 198.4375 C-88.58805908 202.05066624 -89.12637428 205.43397658 -88.25 209.25 C-85.63657025 213.51868558 -82.73345812 217.02272929 -79.20947266 220.56518555 C-78.72109421 221.05867493 -78.23271576 221.55216431 -77.72953796 222.06060791 C-76.12946969 223.67446541 -74.52219454 225.28089912 -72.9140625 226.88671875 C-71.79050192 228.01417113 -70.66716363 229.14184508 -69.54403687 230.26972961 C-67.19550755 232.62569745 -64.84317096 234.97778292 -62.48828125 237.32739258 C-59.47825687 240.33161495 -56.47977101 243.34706861 -53.48426247 246.36575603 C-51.16972874 248.69505102 -48.84827357 251.01735088 -46.52479172 253.33771706 C-45.41651567 254.44650476 -44.31058583 255.55764296 -43.20711136 256.67120934 C-41.66161256 258.2291063 -40.10678951 259.77708422 -38.54931641 261.32299805 C-37.66869537 262.2042485 -36.78807434 263.08549896 -35.88076782 263.99345398 C-32.08519399 267.24911453 -28.92367406 269.21900604 -23.875 269.3125 C-15.0533241 266.72683637 -8.61400192 258.90143311 -2.30151367 252.56030273 C-1.33025565 251.59176044 -0.35857391 250.62364289 0.61349487 249.65591431 C3.2314417 247.04702088 5.84310031 244.43191891 8.45333695 241.81531405 C11.19421152 239.06934712 13.93999524 236.32829577 16.6849823 233.58644104 C21.28895011 228.98610164 25.88870752 224.38158405 30.48608398 219.7746582 C35.79583701 214.45400338 41.11278257 209.1406177 46.43348294 203.83091205 C51.01229064 199.26118619 55.58718217 194.68756717 60.15883464 190.11068302 C62.88480637 187.38159902 65.61209783 184.65387075 68.34293556 181.92965508 C70.90759367 179.37078351 73.46729214 176.80705109 76.0232811 174.23952103 C77.40650932 172.85239794 78.79464983 171.47017877 80.18293762 170.08811951 C81.42128357 168.84131409 81.42128357 168.84131409 82.68464661 167.56932068 C83.40155072 166.85166251 84.11845484 166.13400434 84.85708332 165.39459896 C88.54385186 161.21763752 90.35270172 157.96070455 90.09375 152.2421875 C89.49549174 148.77500894 88.08829408 146.82811911 85.75 144.25 C76.08181193 138.54383109 69.98955614 143.56136426 62.91369629 150.58862305 Z " fill="#0D700D" transform="translate(255.25,50.75)"/>
</svg>
