<?xml version="1.0" encoding="UTF-8"?>
<svg version="1.1" xmlns="http://www.w3.org/2000/svg" width="512" height="512">
<path d="M0 0 C7.62980515 5.84665968 11.88337148 13.74410054 16.25 22.125 C17.17477231 23.87134166 18.09955818 25.61767641 19.02537537 27.36346436 C19.96993309 29.1467649 20.91090891 30.93192277 21.8515625 32.71728516 C24.6128242 37.93651039 27.43025793 43.1247075 30.25 48.3125 C31.32441274 50.29416567 32.39863149 52.27593653 33.47265625 54.2578125 C34.26760498 55.72395996 34.26760498 55.72395996 35.07861328 57.21972656 C37.78297451 62.20822657 40.48511881 67.19792717 43.1875 72.1875 C44.27082285 74.18750568 45.35415618 76.18750568 46.4375 78.1875 C83.27083333 146.1875 120.10416667 214.1875 156.9375 282.1875 C157.47463623 283.17886963 158.01177246 284.17023926 158.56518555 285.19165039 C159.64047037 287.17732686 160.71486269 289.16348691 161.78833008 291.15014648 C164.61240441 296.37376111 167.45480066 301.58629308 170.32421875 306.78515625 C170.91847656 307.86732422 171.51273437 308.94949219 172.125 310.06445312 C173.26120912 312.13270879 174.40283073 314.19800369 175.55078125 316.25976562 C181.53347764 327.18044132 183.56649839 338.06254375 181.03515625 350.35546875 C177.83910947 360.08077849 171.51247727 367.99074498 162.6875 373.1875 C155.44293016 376.69185006 148.74302288 378.30910459 140.67282677 378.31892776 C139.48392637 378.32276891 138.29502597 378.32661005 137.07009828 378.3305676 C135.77283835 378.32970112 134.47557841 378.32883463 133.13900757 378.32794189 C131.7399486 378.33052731 130.34089036 378.33354097 128.94183314 378.3369453 C125.10201778 378.34499784 121.26222113 378.34680389 117.42239833 378.34754276 C113.27908119 378.34939637 109.1357737 378.35694527 104.99246216 378.36367798 C95.9344507 378.37724958 86.87644368 378.38328424 77.81842375 378.38768864 C72.16015371 378.39045313 66.50188537 378.39469087 60.84361649 378.39919281 C45.17073613 378.41138411 29.49785714 378.42168359 13.82497215 378.4250679 C12.32083462 378.42539725 12.32083462 378.42539725 10.78631047 378.42573325 C9.78118227 378.42595153 8.77605406 378.42616981 7.74046743 378.4263947 C5.70376865 378.42683816 3.66706987 378.42728473 1.63037109 378.42773438 C0.11496866 378.42806652 0.11496866 378.42806652 -1.43104796 378.42840537 C-17.7958253 378.4323522 -34.16055809 378.44980334 -50.52531822 378.4730939 C-67.33563236 378.49682502 -84.14592416 378.50927056 -100.95625532 378.51043582 C-110.39103395 378.51135161 -119.82575451 378.51707965 -129.26051712 378.53525543 C-137.29546331 378.5506802 -145.33033349 378.55576288 -153.36529167 378.54751733 C-157.46196633 378.54361919 -161.55848804 378.54449937 -165.65514374 378.55857468 C-169.41197987 378.57136393 -173.1685489 378.5700724 -176.92538492 378.55798396 C-178.91447999 378.55511889 -180.90357988 378.56692455 -182.89263785 378.57940602 C-195.78209876 378.50889026 -207.51957941 376.26505483 -217.3125 367.37109375 C-224.82433747 359.35738782 -228.47044138 350.4956229 -228.625 339.625 C-228.65400391 338.97208984 -228.68300781 338.31917969 -228.71289062 337.64648438 C-228.85415019 326.3783177 -222.57178056 316.45705585 -217.3125 306.875 C-216.63939408 305.63528719 -215.96695991 304.39520943 -215.29516602 303.15478516 C-213.30988929 299.49409988 -211.31165012 295.84062691 -209.3125 292.1875 C-208.25870269 290.2541307 -207.20528227 288.32055589 -206.15234375 286.38671875 C-204.70432357 283.72904256 -203.2551964 281.07199956 -201.80273438 278.41674805 C-197.94134085 271.35707414 -194.12219624 264.27518621 -190.3125 257.1875 C-185.52387304 248.27930789 -180.70360412 239.38941235 -175.8515625 230.515625 C-171.97650417 223.42160286 -168.13984377 216.30736222 -164.3125 209.1875 C-159.5238349 200.27932824 -154.70360427 191.38941262 -149.8515625 182.515625 C-145.97650417 175.42160286 -142.13984377 168.30736222 -138.3125 161.1875 C-133.5238349 152.27932824 -128.70360427 143.38941262 -123.8515625 134.515625 C-119.97650404 127.42160264 -116.13987429 120.30734599 -112.3125 113.1875 C-107.49794015 104.23198453 -102.65459597 95.2930519 -97.77905273 86.37060547 C-94.13044973 79.692073 -90.49840524 73.00473525 -86.875 66.3125 C-86.33480225 65.31532959 -85.79460449 64.31815918 -85.23803711 63.29077148 C-82.50561519 58.24520537 -79.77816675 53.19703522 -77.05859375 48.14453125 C-74.37395671 43.16050561 -71.67548645 38.18424113 -68.96386719 33.21484375 C-67.83677933 31.14862709 -66.71255286 29.08084765 -65.59082031 27.01171875 C-63.88585989 23.87558717 -62.16396686 20.74933353 -60.4375 17.625 C-59.67083008 16.20658813 -59.67083008 16.20658813 -58.88867188 14.75952148 C-54.40920703 6.72509873 -49.59727138 0.78010963 -41.125 -3.1875 C-40.12082031 -3.66960938 -39.11664063 -4.15171875 -38.08203125 -4.6484375 C-25.74378501 -9.83432943 -10.78273196 -7.57431078 0 0 Z M-33.3125 126.1875 C-35.14635741 129.14505769 -35.56674833 131.38748837 -35.58665466 134.84213257 C-35.59662979 135.77293137 -35.60660492 136.70373016 -35.61688232 137.66273499 C-35.617547 138.67685959 -35.61821167 139.69098419 -35.61889648 140.73583984 C-35.62722 141.80943253 -35.63554352 142.88302521 -35.64411926 143.989151 C-35.66823773 147.54228326 -35.67699346 151.09523203 -35.68359375 154.6484375 C-35.69255818 157.11699479 -35.70167999 159.58555151 -35.71095276 162.05410767 C-35.72745001 167.23074668 -35.73514431 172.40732095 -35.73803711 177.58398438 C-35.74342363 184.21763352 -35.78111268 190.85067452 -35.82678127 197.48415184 C-35.85651999 202.58338647 -35.86375998 207.68247405 -35.86476326 212.78178787 C-35.86897133 215.22743136 -35.88142895 217.67307506 -35.90228081 220.11863327 C-35.92912934 223.539668 -35.92438813 226.95928488 -35.91186523 230.38037109 C-35.92669952 231.39044724 -35.94153381 232.40052338 -35.95681763 233.44120789 C-35.90971957 237.95841904 -35.82705221 241.17044574 -32.92347717 244.77310181 C-29.14485396 248.26723463 -27.02848783 249.21869978 -21.875 249.125 C-17.40783368 247.94942992 -15.59398461 246.39085403 -12.3125 243.1875 C-11.13289753 240.82829506 -11.17923031 239.4047211 -11.16532898 236.77337646 C-11.15817368 235.845327 -11.15101837 234.91727753 -11.14364624 233.96110535 C-11.14095734 232.93979019 -11.13826843 231.91847504 -11.13549805 230.86621094 C-11.12892685 229.79291031 -11.12235565 228.71960968 -11.11558533 227.61378479 C-11.09581983 224.04981421 -11.08418237 220.48588583 -11.07421875 216.921875 C-11.07014322 215.70658363 -11.0660677 214.49129227 -11.06186867 213.23917389 C-11.04099391 206.80674915 -11.02669835 200.37434584 -11.01733398 193.94189453 C-11.00626757 187.29260514 -10.97186861 180.64365844 -10.93216228 173.9944725 C-10.90603483 168.88667167 -10.89764555 163.77895096 -10.89405251 158.67108917 C-10.88917644 156.21986889 -10.87753364 153.76865243 -10.85901451 151.31749725 C-10.83470668 147.88685 -10.83557331 144.45707392 -10.8425293 141.02636719 C-10.82971924 140.01314896 -10.81690918 138.99993073 -10.80371094 137.95600891 C-10.8474124 132.04426853 -11.40709229 128.70971087 -15.3125 124.1875 C-18.30062362 121.83968859 -21.53161188 121.76924919 -25.28125 121.8671875 C-28.66679158 122.40106136 -30.75430448 123.99476098 -33.3125 126.1875 Z M-38.3125 282.1875 C-41.93220311 286.58285378 -42.46010979 291.63910832 -42.3125 297.1875 C-40.53463093 302.89539545 -37.80311033 307.13640914 -33.1875 310.9375 C-27.5837321 313.37392083 -22.33371705 313.81705941 -16.5 312 C-11.5131856 309.16436044 -7.64597448 306.55449131 -5.3125 301.1875 C-3.88460919 294.72904003 -3.96208429 290.07961039 -7.3125 284.1875 C-10.35903547 279.71924798 -13.22009646 276.87119466 -18.609375 275.6796875 C-26.65570742 274.5336947 -32.34504523 276.5515705 -38.3125 282.1875 Z " fill="#BB4A08" transform="translate(279.3125,57.8125)"/>
</svg>
